HIERARCHY
ROOT Hips
{
  OFFSET 244.016 106.005 -249.221
  CHANNELS 6 Xposition Yposition Zposition Zrotation Xrotation Yrotation
  JOINT ToSpine
  {
    OFFSET -2.69724 7.43032 -0.144315
    CHANNELS 3 Zrotation Xrotation Yrotation
    JOINT Spine
    {
      OFFSET -0.0310711 10.7595 1.96963
      CHANNELS 3 Zrotation Xrotation Yrotation
      JOINT Spine1
      {
        OFFSET 19.9056 3.91189 0.764692
        CHANNELS 3 Zrotation Xrotation Yrotation
        JOINT Neck
        {
          OFFSET 25.9749 7.03908 -0.130764
          CHANNELS 3 Zrotation Xrotation Yrotation
          JOINT Head
          {
            OFFSET 9.52751 0.295786 -0.907742
            CHANNELS 3 Zrotation Xrotation Yrotation
            End Site
            {
              OFFSET 16.4037 0.713936 2.7358
            }
          }
        }
        JOINT LeftShoulder
        {
          OFFSET 17.7449 4.33886 11.7777
          CHANNELS 3 Zrotation Xrotation Yrotation
          JOINT LeftArm
          {
            OFFSET 0.911315 1.27913 9.80584
            CHANNELS 3 Zrotation Xrotation Yrotation
            JOINT LeftForeArm
            {
              OFFSET 28.6126 1.18197 -3.53199
              CHANNELS 3 Zrotation Xrotation Yrotation
              JOINT LeftHand
              {
                OFFSET 27.5088 0.0218783 0.327423
                CHANNELS 3 Zrotation Xrotation Yrotation
                End Site
                {
                  OFFSET 18.6038 -0.000155887 0.382096
                }
              }
            }
          }
        }
        JOINT RightShoulder
        {
          OFFSET 17.1009 2.89543 -12.2328
          CHANNELS 3 Zrotation Xrotation Yrotation
          JOINT RightArm
          {
            OFFSET 1.4228 0.178766 -10.211
            CHANNELS 3 Zrotation Xrotation Yrotation
            JOINT RightForeArm
            {
              OFFSET 28.733 1.87905 2.64907
              CHANNELS 3 Zrotation Xrotation Yrotation
              JOINT RightHand
              {
                OFFSET 27.4588 0.290562 -0.101845
                CHANNELS 3 Zrotation Xrotation Yrotation
                End Site
                {
                  OFFSET 17.8396 -0.255518 -0.000602873
                }
              }
            }
          }
        }
      }
    }
  }
  JOINT LeftUpLeg
  {
    OFFSET -5.61296 -2.22332 -10.2353
    CHANNELS 3 Zrotation Xrotation Yrotation
    JOINT LeftLeg
    {
      OFFSET 2.56703 -44.7417 -7.93097
      CHANNELS 3 Zrotation Xrotation Yrotation
      JOINT LeftFoot
      {
        OFFSET 3.16933 -46.5642 -3.96578
        CHANNELS 3 Zrotation Xrotation Yrotation
        JOINT LeftToeBase
        {
          OFFSET 0.346054 -6.02161 12.8035
          CHANNELS 3 Zrotation Xrotation Yrotation
          End Site
          {
            OFFSET 0.134235 -1.35082 5.13018
          }
        }
      }
    }
  }
  JOINT RightUpLeg
  {
    OFFSET -5.7928 -1.72406 10.6446
    CHANNELS 3 Zrotation Xrotation Yrotation
    JOINT RightLeg
    {
      OFFSET -2.57161 -44.7178 -7.85259
      CHANNELS 3 Zrotation Xrotation Yrotation
      JOINT RightFoot
      {
        OFFSET -3.10148 -46.5936 -4.03391
        CHANNELS 3 Zrotation Xrotation Yrotation
        JOINT RightToeBase
        {
          OFFSET -0.0828122 -6.13587 12.8035
          CHANNELS 3 Zrotation Xrotation Yrotation
          End Site
          {
            OFFSET -0.131328 -1.35082 5.13018
          }
        }
      }
    }
  }
}
MOTION
Frames:	20
Frame Time:	0.0333333
244.016 106.005 -249.221 65.6879 59.1909 24.1732 -70.1915 0 88.8779 86.22 66.6557 -6.04611 4.40202 12.671 12.3344 -144.592 20.8912 167.182 -150.428 57.892 157.736 1.56884 -7.21232 -32.1899 -52.3206 29.7268 -137.425 8.95924 17.2466 -22.2662 1.52644 -0.0491864 -1.89969 1.17359 -3.77645 45.3465 -91.4688 -31.591 75.5373 -3.95712 -18.0396 9.82311 7.11936 -0.372098 -6.92091 -71.9889 -2.78032 82.9982 2.79184 28.9343 -5.87554 7.31305 3.43652 -0.963755 -18.8539 -42.6158 -1.03516 -46.359 3.87832 82.1638 1.40876 15.8185 -14.7564 -4.79123 1.19488 0.715712 0.409852 24.6007 11.3423 
241.233 105.763 -246.604 67.986 58.5331 19.9385 -70.1915 0 88.8779 90.2827 67.5255 -12.6686 2.99022 13.5016 12.1943 -144.94 20.7502 166.51 -149.83 57.632 157.295 1.63202 -6.87975 -32.0409 -53.0415 29.2403 -136.678 9.61792 18.2987 -22.6328 0.732041 -0.0250738 -2.00865 1.11085 -3.58556 45.2151 -88.9305 -33.8568 77.5803 -1.54947 -15.7713 13.3939 4.47366 -0.256777 -8.00717 -70.903 -4.84845 87.6796 3.78372 28.388 -8.72421 7.75157 3.99052 -1.0267 -19.0201 -42.4437 -1.7276 -45.085 1.01649 82.1249 1.99994 16.2013 -12.1797 -4.35437 4.62732 0.5447 -0.380169 16.6454 11.9022 
238.46 105.527 -244.041 69.6836 57.9217 16.9568 -70.1915 0 88.8779 95.8429 68.1608 -19.1786 1.21645 14.6262 11.6424 -145.244 21.319 167.216 -149.779 58.3044 158.621 1.54067 -7.37607 -32.3995 -53.7261 29.0805 -135.651 8.32339 17.6473 -21.5153 0.66682 -0.0221121 -1.91248 1.19874 -3.88705 45.0451 -83.1125 -35.6477 82.1261 -1.06255 -11.7978 15.216 4.35889 -0.232388 -7.49656 -69.3655 -5.93177 91.0822 3.83893 28.3344 -10.6457 8.74704 4.15445 -1.18104 -19.1906 -41.8506 -3.03607 -42.9784 -1.93849 81.4501 3.00612 18.2107 -9.66162 -3.05431 5.84859 0.28091 -1.14596 6.7733 12.032 
235.806 105.515 -241.741 71.6217 57.8702 14.2699 -70.1915 0 88.8779 99.2065 67.9389 -23.3376 1.20432 15.0318 10.5323 -146.039 21.4386 168.038 -150.723 58.657 160.436 1.62628 -6.90976 -32.0514 -55.9389 29.9382 -133.594 6.87933 19.2838 -20.1039 1.40752 -0.0484742 -2.10058 1.01881 -3.25532 45.6214 -80.1091 -36.3658 85.0089 1.22213 -12.7898 17.1412 3.87559 -0.16955 -6.34853 -68.2206 -6.92008 93.6257 3.76412 28.4277 -11.5057 9.38188 3.69147 -1.27579 -17.8786 -40.0023 -1.97495 -41.4449 -5.21419 78.0047 3.64245 22.7721 -3.40781 -2.91072 5.07186 0.291301 -1.37399 -2.67247 7.75612 
233.515 105.703 -239.533 73.9971 58.2159 12.1764 -70.1915 0 88.8779 103.524 67.387 -27.7619 0.958083 15.0822 10.0774 -146.089 20.903 168.169 -148.609 57.4676 158.666 1.66903 -6.77648 -32.5868 -61.5443 33.4927 -128.765 4.30878 23.5007 -17.7904 4.85434 -0.124888 -1.24565 0.868652 -2.78057 45.5264 -70.4542 -36.4322 91.459 0.946226 -7.63075 18.4709 6.87885 -0.289167 -5.65916 -67.4926 -7.21023 94.7806 3.71216 28.748 -11.3628 10.0482 3.73197 -1.37762 -16.7963 -37.9508 -1.77168 -40.2694 -7.70197 72.6157 1.76744 31.1043 6.11804 -3.5659 4.08492 0.438827 -2.01485 -9.77092 4.36108 
231.279 106.024 -237.352 76.0143 57.782 10.5125 -70.1915 0 88.8779 106.136 67.6873 -30.3404 1.645 15.6297 10.3594 -146.559 21.1053 169.778 -148.846 57.6617 159.7 1.72728 -6.65715 -33.6758 -78.4358 40.0392 -117.959 0.0727912 37.3127 -12.5683 5.13902 -0.110892 -0.798094 0.817766 -2.65768 44.8434 -67.3961 -36.4538 94.5034 1.59607 -5.74934 19.6091 7.82435 -0.332925 -5.65687 -66.7495 -7.49833 95.0433 3.72972 28.608 -11.0901 9.61702 3.91212 -1.31395 -15.2109 -35.611 -0.198293 -39.5488 -8.08009 74.2291 1.99909 39.4165 6.02332 -3.95936 3.17346 0.533705 -2.5132 -13.5116 1.13535 
229.336 106.345 -235.236 75.3212 57.6756 11.4093 -70.1915 0 88.8779 107.279 67.5878 -30.4088 0.681422 15.9053 9.33488 -144.482 20.719 168.633 -146.687 56.9296 158.676 1.71679 -6.56581 -32.7227 -92.4413 43.9342 -106.512 -6.20967 45.0956 -4.14032 5.97679 -0.126675 -0.749169 0.750252 -2.40821 45.3737 -64.735 -36.133 96.0488 2.03478 -4.80907 20.3193 8.99715 -0.395492 -5.76689 -64.6757 -7.40378 95.1551 3.67095 28.5127 -10.8454 9.07641 3.97676 -1.23123 -13.7769 -32.502 -0.193069 -38.5628 -8.27181 75.6327 3.01825 48.8239 6.93495 -6.683 0.730647 0.971634 -2.3467 -13.2419 -5.10435 
227.519 106.822 -233.098 74.6401 57.5352 12.875 -70.1915 0 88.8779 107.121 68.0265 -29.2987 0.736019 16.1782 9.48223 -144.277 20.3707 168.016 -146.73 56.4463 157.294 1.75809 -6.38028 -32.8069 -97.4778 44.483 -100.419 -9.20201 45.3169 1.45836 5.88544 -0.00882716 1.38473 0.686789 -2.23751 44.6422 -63.2037 -36.8445 97.3589 2.58947 -2.54886 21.7288 8.32868 -0.475285 -7.41837 -63.1803 -6.56377 95.5101 3.6072 27.3239 -11.5052 9.25253 4.84201 -1.26527 -12.6622 -30.4888 0.708959 -38.1651 -8.24551 74.9155 4.00311 57.3449 3.56304 -4.81419 0.788244 0.730608 -2.83284 -15.2962 -0.942268 
225.964 107.107 -230.828 76.0762 58.0246 12.3909 -70.1915 0 88.8779 109.723 68.0131 -32.1951 0.372605 16.2094 10.4458 -143.403 20.6353 167.88 -145.762 56.6608 157.546 1.82869 -6.08172 -33.0418 -100.932 43.9608 -95.0017 -11.8133 44.2071 5.96957 5.36185 0.0436643 2.40956 0.659349 -2.1464 44.6536 -63.1777 -36.6088 97.4018 3.56723 -4.46028 21.9551 8.40078 -0.424287 -6.60489 -62.6756 -5.6725 96.0463 3.5964 26.8785 -13.0465 9.05198 4.53592 -1.23094 -10.9659 -26.9289 1.4856 -40.6918 -7.45818 74.9206 5.86999 64.1143 2.96383 -5.9387 1.30156 0.865187 -3.38504 -17.7697 -3.34882 
224.323 107.189 -228.691 74.1152 57.056 14.1629 -70.1915 0 88.8779 108.01 69.0512 -29.5869 0.0510752 16.9872 9.99579 -142.357 20.4428 166.556 -142.963 55.9264 156.207 1.88407 -5.85857 -33.2643 -104.087 42.6306 -89.731 -13.8131 45.978 9.77136 3.99598 0.0616144 3.10206 0.571669 -1.84182 45.084 -61.7957 -36.1349 98.2532 2.97094 -2.24099 22.3346 10.431 -0.578117 -7.098 -59.7531 -5.29334 96.0875 3.11203 26.8926 -11.9296 9.02661 4.38588 -1.226 -9.63497 -23.5711 0.938169 -41.7591 -6.34172 75.732 8.02072 69.0062 1.73824 -6.22325 0.337421 0.919487 -3.07975 -16.4235 -2.96105 
222.67 107.234 -226.751 72.8577 55.2772 14.7827 -70.1915 0 88.8779 105.705 70.5228 -25.8853 0.0791459 18.4358 8.75037 -141.647 21.1887 167.272 -143.632 57.2601 158.777 1.95691 -5.52864 -33.3347 -105.377 41.1768 -85.5844 -14.6631 47.2991 11.0831 3.22134 0.0863113 4.19967 0.593312 -1.90414 45.3064 -62.5867 -35.457 98.4003 3.05876 -4.02188 21.5915 9.01532 -0.521247 -7.46466 -57.4555 -5.52721 95.7243 2.76443 26.2399 -9.75757 8.34331 4.76106 -1.11823 -8.46294 -20.7302 0.76049 -43.7869 -5.04399 77.1229 9.697 71.6811 0.482759 -5.74825 0.644096 0.85377 -3.2507 -17.1566 -3.51765 
221.038 107.326 -224.858 72.752 53.8631 14.3993 -70.1915 0 88.8779 105.14 71.7988 -24.0897 -0.0159576 19.9519 7.73658 -139.591 21.025 165.677 -139.079 56.2298 156.68 1.99951 -5.29057 -33.1507 -106.186 40.1145 -81.4605 -15.2589 50.3511 11.7531 4.41515 0.13817 4.82719 0.588272 -1.8974 45.0425 -63.0556 -35.6414 98.4156 2.9259 -4.80106 21.1509 10.5077 -0.584014 -7.11352 -56.1778 -5.51266 95.6197 2.06387 25.0922 -8.35305 7.91087 5.79805 -1.04495 -7.58976 -18.6564 0.846167 -47.3852 -4.04224 78.4599 9.85537 72.1768 -0.562206 -4.63007 -0.640714 0.750952 -2.42968 -13.335 -1.75602 
219.381 106.999 -222.862 72.9785 52.4941 13.1572 -70.1915 0 88.8779 103.832 73.3196 -22.2597 0.304183 21.4822 6.99642 -139.254 21.4509 166.005 -138.301 56.4472 156.202 2.15151 -4.82803 -34.2949 -106.744 37.8316 -78.4697 -15.5774 51.8787 12.135 3.97529 0.0498865 2.7967 0.553488 -1.81508 44.1243 -64.5049 -36.2921 98.4971 2.27302 -6.01371 20.1295 11.1248 -0.597968 -6.8668 -54.4083 -6.34965 95.2519 1.92815 25.0442 -5.96928 7.59085 6.28333 -0.98757 -6.90215 -16.8434 0.042403 -51.8426 -3.92579 79.1887 8.72937 70.5435 0.331918 -5.95216 -0.222023 0.896563 -3.1047 -16.5021 -3.61945 
217.907 106.909 -220.834 74.394 51.8262 11.5473 -70.1915 0 88.8779 105.83 74.0396 -24.0192 -0.220099 22.554 6.75935 -137.649 21.6593 165.878 -138.27 57.0283 157.22 2.23692 -4.32461 -33.8029 -107.336 36.616 -75.0321 -15.3102 51.13 11.9458 1.90244 0.0431474 3.44898 0.436223 -1.41049 44.622 -64.9926 -35.9856 98.0268 1.67412 -5.98217 19.6271 11.2194 -0.534296 -6.12365 -54.4676 -6.54027 94.9923 1.57771 23.46 -5.13502 8.68264 8.19408 -1.18338 -6.95169 -16.9854 0.17264 -57.5895 -3.37947 79.5557 7.11236 67.2745 2.01979 -5.32624 -0.69 0.833153 -2.91586 -15.6418 -4.96837 
216.582 106.699 -218.922 73.9464 50.7912 11.1773 -70.1915 0 88.8779 99.2648 75.5281 -17.0095 1.10143 23.681 6.05343 -137.881 21.78 166.36 -139.237 57.2882 157.415 2.33737 -3.77332 -33.4771 -107.099 35.9596 -72.3887 -15.9091 52.5812 12.3187 2.55276 0.0708104 4.15859 0.392224 -1.27197 44.2214 -64.2328 -36.1568 98.9132 1.85015 -6.36201 19.6764 10.8119 -0.503718 -6.01287 -53.0076 -6.78971 94.8073 1.23307 22.5749 -4.08512 8.83717 9.39248 -1.21801 -6.41141 -15.7031 0.246299 -62.2053 -2.88499 80.2155 5.25854 62.4491 2.78768 -5.44429 -1.16753 0.858224 -2.63237 -14.3743 -3.01877 
214.915 106.431 -216.658 73.0042 49.4429 11.3308 -70.1915 0 88.8779 97.3588 76.1946 -13.8426 0.731912 24.7469 4.59584 -136.572 21.8858 166.326 -138.066 57.4446 158.323 2.45605 -3.19229 -33.3973 -108.093 34.6003 -69.343 -15.0859 50.8278 11.874 1.05119 0.0372244 4.02192 0.353956 -1.13704 44.7409 -62.9923 -35.6405 99.8969 2.34116 -6.55476 20.037 8.26284 -0.450007 -7.10191 -51.1434 -6.88274 94.3684 1.04077 21.1103 -2.79983 9.28155 11.3584 -1.32307 -6.29532 -15.3903 0.0165743 -65.5964 -1.85695 81.6357 3.80925 56.8156 2.94336 -6.16011 -2.27545 0.957839 -1.98329 -11.396 -3.1661 
213.129 105.928 -214.072 72.0873 48.1265 11.0517 -70.1915 0 88.8779 93.6337 77.01 -10.0976 1.14333 25.5642 4.11291 -136.514 21.3993 165.848 -135.427 56.0293 156.292 2.58136 -2.95294 -34.547 -107.79 33.2189 -68.0604 -14.6181 48.7883 11.4022 -3.20566 -0.0946427 5.86973 0.323425 -1.04134 44.254 -62.407 -35.6166 101.506 2.71355 -6.7448 20.3021 8.38989 -0.440034 -6.84501 -48.9408 -7.18861 93.9426 0.883388 19.9374 -1.09888 9.66449 12.5313 -1.41955 -5.54217 -13.5236 -0.566753 -68.1392 -2.44125 81.7986 3.15501 50.8291 5.69413 -7.06826 -1.21416 1.04011 -2.85473 -15.3846 -4.86617 
211.353 105.837 -211.391 70.5547 47.1964 12.2306 -70.1915 0 88.8779 93.3726 77.1543 -8.45172 0.733439 26.1948 3.40382 -137.224 21.4034 166.569 -135.415 55.9054 156.697 2.60081 -3.06126 -35.2262 -108.463 32.6635 -67.0387 -13.8843 46.8831 11.0136 -3.14517 -0.106134 6.42569 0.346548 -1.12811 43.5174 -60.8443 -36.1075 103.491 4.00104 -5.89649 21.8117 8.13794 -0.39888 -6.43774 -47.2574 -6.9446 92.8965 1.15861 17.1605 -0.427936 8.41246 14.1057 -1.13647 -5.08885 -12.4989 0.170639 -70.4785 0.491063 85.3623 2.04712 42.0407 4.34616 -6.31513 -2.22528 0.972851 -4.46961 -22.7676 -2.6263 
209.216 105.416 -208.359 69.541 47.1987 13.8855 -70.1915 0 88.8779 100.354 76.4943 -13.2685 0.164083 26.3193 2.06375 -138.053 21.43 166.371 -132.928 55.1507 155.759 2.65358 -2.96248 -35.6895 -109.3 32.7741 -67.4554 -13.4765 46.9917 11.0423 -2.94367 -0.0618806 4.8508 0.378995 -1.24354 43.2594 -58.8634 -35.5972 105.701 4.54367 -3.87506 23.8334 8.23586 -0.401032 -6.39173 -45.2379 -6.14746 92.2234 1.44204 15.7035 -0.842715 6.88895 14.0942 -0.770346 -5.52921 -13.8059 2.43744 -71.3658 2.05467 84.5107 1.53078 36.5893 2.96129 -8.49618 -7.9993 1.18231 -3.14288 -16.9724 0.60935 
207.058 105.327 -205.368 69.5541 47.6703 16.4625 -70.1915 0 88.8779 111.222 75.1786 -20.5724 -0.234571 25.989 1.41436 -139.426 21.8708 166.886 -131.106 54.9753 155.4 2.6889 -2.99566 -36.3516 -109.762 33.8968 -69.5498 -13.1639 46.37 10.9244 -4.21569 -0.134582 5.96797 0.369631 -1.21823 42.8241 -61.7014 -35.5487 105.013 5.93412 -6.09341 26.3606 7.3729 -0.331957 -5.99523 -43.8456 -4.20148 91.5771 2.11158 14.8758 -2.08814 5.33324 12.7743 -0.429838 -6.60879 -16.9966 4.723 -71.9231 5.07362 82.174 0.583007 31.8556 3.92273 -7.65871 -5.72757 1.12752 -3.98751 -21.3422 0.218388 
